<?xml version="1.0" encoding="UTF-8" standalone="no"?>
<!-- Created with Inkscape (http://www.inkscape.org/) -->

<svg
   xmlns:dc="http://purl.org/dc/elements/1.1/"
   xmlns:cc="http://creativecommons.org/ns#"
   xmlns:rdf="http://www.w3.org/1999/02/22-rdf-syntax-ns#"
   xmlns:svg="http://www.w3.org/2000/svg"
   xmlns="http://www.w3.org/2000/svg"
   xmlns:sodipodi="http://sodipodi.sourceforge.net/DTD/sodipodi-0.dtd"
   xmlns:inkscape="http://www.inkscape.org/namespaces/inkscape"
   id="svg2"
   version="1.1"
   inkscape:version="0.48.4 r9939"
   width="1158"
   height="294"
   sodipodi:docname="172515281.jpg">
  <metadata
     id="metadata8">
    <rdf:RDF>
      <cc:Work
         rdf:about="">
        <dc:format>image/svg+xml</dc:format>
        <dc:type
           rdf:resource="http://purl.org/dc/dcmitype/StillImage" />
        <dc:title></dc:title>
      </cc:Work>
    </rdf:RDF>
  </metadata>
  <defs
     id="defs6" />
  <sodipodi:namedview
     pagecolor="#ffffff"
     bordercolor="#666666"
     borderopacity="1"
     objecttolerance="10"
     gridtolerance="10"
     guidetolerance="10"
     inkscape:pageopacity="0"
     inkscape:pageshadow="2"
     inkscape:window-width="1366"
     inkscape:window-height="705"
     id="namedview4"
     showgrid="false"
     inkscape:zoom="0.24697755"
     inkscape:cx="579"
     inkscape:cy="147"
     inkscape:window-x="-8"
     inkscape:window-y="-8"
     inkscape:window-maximized="1"
     inkscape:current-layer="svg2" />
  <path
     style="fill:#000000"
     d="m 701.31305,279.92066 c -9.2227,-2.41788 -16.4095,-6.10269 -22.0998,-11.33112 -5.5578,-5.10659 -7.2622,-8.90983 -7.2622,-16.20498 0,-9.54218 3.9301,-14.22251 16.9093,-20.13734 4.1303,-1.88222 7.0312,-3.75326 6.5172,-4.20336 -0.5096,-0.44616 -3.0134,-1.57846 -5.564,-2.51623 -6.1491,-2.26077 -11.5059,-7.58752 -12.9231,-12.85052 -2.3051,-8.56066 2.9452,-16.63594 14.4881,-22.28334 3.0649,-1.49951 5.5725,-3.07665 5.5725,-3.50477 0,-0.42813 -2.2798,-2.24136 -5.0663,-4.02941 -6.194,-3.97468 -11.2604,-10.41431 -13.5011,-17.16037 -1.3041,-3.92634 -1.5709,-7.34267 -1.1854,-15.18178 0.5802,-11.80076 2.6184,-17.44615 8.2858,-22.95023 4.7428,-4.60617 11.1014,-6.96152 25.9897,-9.62706 12.3061,-2.20325 20.4773,-5.04437 20.4773,-7.11999 0,-0.65692 -1.8,-3.14717 -4,-5.53389 -3.4506,-3.7435 -4,-4.9674 -4,-8.911492 0,-8.917036 4.8662,-13.47268 14.3912,-13.47268 7.6852,0 13.6088,6.922126 13.6088,15.90278 0,7.611262 -3.5717,12.331622 -12.9,17.048532 l -5.4131,2.73719 4.5014,3.09707 c 6.0758,4.18025 10.5864,9.50362 13.7003,16.1688 2.2214,4.75508 2.5888,6.89989 2.5772,15.04563 -0.016,11.35089 -1.9512,17.87052 -7.0834,23.86634 -6.8207,7.9685 -17.4923,11.94731 -37.8824,14.12418 -8.3157,0.88779 -10.3962,1.46271 -12.3522,3.41342 -1.9356,1.93041 -2.1583,2.70795 -1.2576,4.39085 1.4778,2.7614 5.1616,3.81605 21.5755,6.17696 16.4129,2.36077 24.5131,4.84153 31.1001,9.52473 9.187,6.53171 12.8531,14.63429 12.8967,28.50352 0.023,7.27973 -0.3683,9.30599 -2.725,14.1143 -9.4181,19.21511 -34.0065,29.03077 -57.3755,22.90426 z m 22.8388,-3.14382 c 11.0698,-2.35062 20.1241,-8.61864 23.2461,-16.09262 6.323,-15.13659 -7.0097,-28.23747 -30.0515,-29.52907 -10.9138,-0.61177 -17.0585,1.05477 -23.1668,6.28325 -8.1962,7.0157 -10.8402,19.15613 -5.7903,26.58774 3.0405,4.47447 10.8023,9.52973 18.3236,11.9341 6.7851,2.169 10.2958,2.33339 17.4389,0.8166 z m -2.3481,-93.40426 c 7.4625,-6.27927 10.6033,-34.864 5.5302,-50.33123 -3.4641,-10.56165 -11.4322,-14.33446 -18.2169,-8.62552 -4.7082,3.96173 -6.3726,10.11359 -6.91,25.54004 -0.6853,19.67022 2.5028,30.60549 10.0002,34.30157 4.4623,2.19981 6.1113,2.04776 9.5965,-0.88486 z m 227.1473,97.10707 c 0,-0.78234 1.6875,-1.97558 3.75,-2.65162 2.0625,-0.67605 4.7855,-1.90277 6.0511,-2.72605 5.3155,-3.45777 5.1989,-1.76559 5.1989,-75.41582 0,-78.36635 0.6045,-73.10924 -8.9719,-78.0217 -2.9352,-1.5057 -5.5917,-2.99267 -5.9035,-3.30437 -1.739,-1.73901 4.4543,-2.42899 21.9254,-2.44268 20.6925,-0.0162 21.95,0.25217 21.95,4.68469 0,2.6835 1.2072,2.96017 3.0784,0.70551 0.7278,-0.87697 3.5954,-2.89775 6.37245,-4.49062 4.1495,-2.38012 6.2072,-2.89605 11.5491,-2.89574 16.8617,0.001 30.2724,14.30162 36.0862,38.48085 4.2852,17.82182 2.212,36.60637 -5.9461,53.87699 -7.8821,16.68622 -17.8543,26.08732 -29.7775,28.07204 -5.2097,0.86721 -10.558,-0.55291 -16.66265,-4.4244 -2.6232,-1.66354 -5.2037,-3.02463 -5.7346,-3.02463 -1.6115,0 -1.2365,38.41521 0.4135,42.36422 1.5924,3.81112 5.8008,7.43976 9.53365,8.22025 1.4231,0.29756 3.6,0.74636 4.8375,0.99733 1.2375,0.25097 2.25,1.12273 2.25,1.93725 0,1.27502 -4.1715,1.48095 -29.99995,1.48095 -25.2731,0 -30,-0.22413 -30,-1.42245 z m 63.74105,-54.35108 c 3.0714,-1.98011 7.9491,-12.2712 9.8238,-20.72647 0.9135,-4.11997 1.7897,-14.65115 2.1297,-25.59634 1.1614,-37.38722 -3.7992,-58.51946 -14.1949,-60.46969 -8.4087,-1.57749 -15.10515,6.56402 -18.01275,21.89987 -2.2075,11.64256 -2.1795,57.39718 0.042,68.15007 2.4994,12.10069 5.3776,16.85157 11.15755,18.41696 3.227,0.87399 5.8562,0.38781 9.055,-1.6744 z m -983.06175,8.11946 c -1.7128,-1.71277 -0.2971,-3.20322 4.0707,-4.28552 6.5752,-1.6293 11.8405,-5.33738 14.2302,-10.02169 1.9663,-3.85415 2.0194,-5.70214 2.0045,-69.74888 -0.01,-36.70838 -0.4089,-66.41151 -0.9057,-67.196216 -1.5147,-2.392587 -9.4351,0.521904 -14.9894,5.515688 -8.5516,7.688626 -16.1556,26.165708 -17.8518,43.378198 -0.5892,5.97958 -1.0902,7.55514 -2.4878,7.82333 -1.6362,0.31397 -1.75,-1.67678 -1.75,-30.61507 0,-24.914772 0.2659,-31.17157 1.3635,-32.082482 0.9848,-0.817327 15.6348,-1.059626 52.75,-0.872445 l 51.3865,0.259155 0.264,31.750002 c 0.2157,25.93125 0.02,31.75 -1.0699,31.75 -0.9245,0 -1.7022,-2.76576 -2.5336,-9.01033 -3.1708,-23.81504 -13.4593,-42.883146 -25.6506,-47.539036 -8.136,-3.107157 -7.5107,-8.712692 -7.5033,67.267986 0.01,64.3355 0.1009,67.92443 1.8619,70.59528 2.539,3.85088 7.9719,7.36531 13.5617,8.77284 3.4141,0.85968 4.5825,1.60936 4.3545,2.79409 -0.2789,1.44949 -3.9853,1.64669 -35.3689,1.88176 -19.2815,0.14443 -35.3629,-0.0431 -35.7365,-0.41666 z m 89.0036,0.004 c -1.6498,-1.64985 -0.3952,-3.34995 3.1832,-4.31353 4.4402,-1.19563 8.8428,-5.17081 9.9042,-8.94267 0.4013,-1.42671 0.7297,-33.41873 0.7297,-71.09373 0,-74.128741 0.076,-73.045302 -5.3821,-76.901611 -1.4398,-1.017344 -4.0804,-2.166423 -5.8679,-2.553509 -1.8373,-0.397863 -3.25,-1.330105 -3.25,-2.144626 0,-1.216836 3.2259,-1.398813 20.75,-1.170544 l 20.75,0.270288 0.2534,28.5 c 0.1394,15.675002 0.4783,29.102952 0.7531,29.839882 0.3439,0.92221 2.0591,-0.0622 5.5024,-3.15798 8.2763,-7.44113 18.4869,-9.50331 30.0596,-6.07098 7.1846,2.13089 13.7698,8.67117 17.0051,16.88908 2.1981,5.58328 2.3617,7.35433 2.3551,25.5 0,10.725 -0.2145,27.6 -0.4679,37.5 -0.5106,19.94336 0.2375,24.50767 4.8383,29.522 1.4855,1.61901 4.5009,3.51585 6.7009,4.21519 2.3169,0.73651 4,1.90085 4,2.76717 0,1.28987 -3.6439,1.49564 -26.4863,1.49564 -23.8465,0 -26.5181,-0.16488 -26.8049,-1.65433 -0.2199,-1.14157 0.8072,-2.02589 3.3137,-2.85309 2.2182,-0.73208 4.3793,-2.42389 5.5512,-4.34567 1.8111,-2.97021 1.919,-5.50159 1.9226,-45.08119 0,-40.30238 -0.076,-42.09988 -2.0564,-46.18989 -2.4741,-5.11074 -9.2452,-9.01799 -13.6932,-7.9016 -3.7715,0.94658 -9.5877,7.3828 -11.0341,12.21036 -1.8362,6.12888 -1.7054,80.21527 0.1494,84.59753 1.6659,3.93593 4.2337,6.23412 7.9544,7.1193 1.9439,0.46244 2.7143,1.20117 2.4868,2.38431 -0.2998,1.55848 -2.6974,1.73847 -26.3836,1.98052 -14.3296,0.14643 -26.3611,-0.0411 -26.7367,-0.41667 z m 142.063,-0.37784 c -6.9425,-1.74239 -13.3319,-5.77419 -19.3079,-12.18346 -6.9226,-7.42463 -10.2598,-13.22593 -13.9707,-24.2865 -9.889,-29.47512 3.3074,-67.792 27.1124,-78.72289 7.435,-3.41408 20.0577,-3.22885 26.9604,0.39564 13.482,7.07908 22.5801,25.04364 22.8443,45.10655 0.09,6.80732 -0.2216,8.99543 -1.3844,9.73469 -0.8448,0.53704 -12.2242,0.96029 -26.05,0.96892 -17.7433,0.0111 -24.8827,0.34802 -25.75,1.21531 -1.4646,1.46459 -1.546,12.59364 -0.1631,22.3 2.9466,20.68123 12.3348,32.28558 23.9631,29.61969 8.1715,-1.8734 13.8833,-7.0204 18.4434,-16.61969 2.7806,-5.85374 5.5566,-16.00149 5.5566,-20.31291 0,-4.028 0.9098,-6.18744 2.607,-6.18744 2.2736,0 1.7056,9.90725 -1.072,18.69838 -6.952,22.00252 -23.2712,34.41894 -39.7891,30.27336 z m 18.0433,-75.46577 c 0.6452,-22.3031 -4.6855,-36.50632 -13.7014,-36.50632 -2.7175,0 -6.8895,3.69105 -9.1252,8.0732 -4.122,8.07992 -7.2704,30.55606 -5.0716,36.20592 l 1.0816,2.77912 13.2637,-0.27912 13.2637,-0.27912 0.2892,-9.99403 z m 96.8901,75.83996 c -1.6943,-1.69428 -0.3198,-3.19901 3.8904,-4.25917 5.9007,-1.48582 11.4643,-5.20175 13.9552,-9.32068 1.9058,-3.15155 1.985,-5.58094 2.2587,-69.27905 0.3207,-74.676691 0.701,-70.84762 -6.8122,-68.596608 -12.5063,3.746971 -24.3941,24.774738 -26.6077,47.064888 -0.7875,7.92977 -2.0467,11.76166 -3.4154,10.39302 -0.6065,-0.60648 -0.8769,-12.90597 -0.7128,-32.41284 l 0.2645,-31.435842 50.5,-0.276972 c 27.775,-0.152334 51.5125,-0.03126 52.75,0.269052 l 2.25,0.546024 0,31.480948 c 0,27.1364 -0.2044,31.48095 -1.481,31.48095 -1.6278,0 -1.8309,-0.74172 -3.4789,-12.7076 -2.0141,-14.62386 -7.9716,-28.994492 -15.3527,-37.033564 -6.2405,-6.796832 -15.6265,-10.465982 -17.0804,-6.677051 -1.1532,3.005248 -0.6696,129.652685 0.5114,133.906525 1.5668,5.64392 6.8004,10.20269 14.0159,12.20878 4.3629,1.213 5.8643,2.07198 5.6419,3.22788 -0.2678,1.39164 -4.3849,1.6056 -35.3604,1.83762 -19.2815,0.14443 -35.363,-0.0431 -35.7365,-0.41666 z m 122.0666,-0.37738 c -16.0889,-4.02424 -29.287,-19.90972 -34.8637,-41.96264 -6.85,-27.08777 5.4421,-60.77126 26.3052,-72.08322 5.8572,-3.17614 6.9618,-3.42304 15.3126,-3.42304 8.107,0 9.5314,0.29432 14.3554,2.9663 6.9272,3.83689 12.5963,10.28662 16.7299,19.0337 5.6625,11.98198 8.357,31.4148 4.8433,34.92857 -1.3441,1.34411 -5.1599,1.57143 -26.3776,1.57143 -21.0541,0 -24.9983,0.23159 -26.0768,1.53113 -1.5671,1.88821 -0.7187,17.79872 1.5153,28.41901 4.2497,20.20213 15.7619,28.25727 29.2266,20.44993 9.0817,-5.26592 14.7154,-16.87128 17.7913,-36.65007 0.5888,-3.78574 2.7655,-5.08726 3.8372,-2.29439 0.8792,2.29117 -1.1724,13.04122 -3.8429,20.13596 -7.6394,20.29622 -23.1788,31.27317 -38.7558,27.37698 z m 18.0433,-75.46258 c 0.624,-21.56974 -4.6307,-36.50632 -12.8429,-36.50632 -5.7924,0 -10.8272,6.866 -13.367,18.22868 -2.047,9.15805 -2.9147,22.75895 -1.6622,26.05336 l 1.0555,2.7762 13.2637,-0.27912 13.2637,-0.27912 0.2892,-9.99403 z m 20.8775,75.82736 c -1.5793,-1.57929 -0.3997,-3.09676 3.2596,-4.1931 4.6105,-1.38135 8.5809,-5.70467 10.0297,-10.92128 1.3736,-4.94587 1.416,-134.339785 0.046,-139.272671 -1.3682,-4.924942 -4.3402,-7.777044 -9.5583,-9.172675 -2.4438,-0.653978 -4.4433,-1.752365 -4.4433,-2.441209 0,-0.952093 4.82,-1.322026 20.0992,-1.542596 11.0546,-0.159583 20.4883,-0.04868 20.9638,0.246459 0.4754,0.295135 0.9933,34.495142 1.1507,76.000002 0.258,68.00475 0.4499,75.7599 1.9413,78.46339 2.2541,4.086 5.5986,7.00067 10.2174,8.90425 3.2676,1.34671 3.6779,1.83019 2.6275,3.09585 -1.0506,1.26595 -5.489,1.4999 -28.4557,1.4999 -14.966,0 -27.5109,-0.3 -27.8775,-0.66667 z m 88.0678,-0.36397 c -17.0247,-4.27053 -30.3634,-21.04044 -35.1439,-44.18427 -3.9675,-19.20821 0.4422,-40.26747 11.7501,-56.11413 8.0076,-11.22162 16.8892,-16.7184 28.1593,-17.42767 9.7586,-0.61414 17.0981,2.22439 24.2539,9.38017 8.95,8.95004 15.1855,25.20213 15.2287,39.69228 0.031,10.27358 1.6931,9.68426 -27.3178,9.68426 -18.3171,0 -25.5948,0.33 -26.4648,1.2 -2.534,2.53402 -0.8137,23.36475 2.9308,35.48805 1.4991,4.85363 3.1643,7.66228 6.746,11.37818 4.6103,4.78313 4.9303,4.93377 10.4792,4.93377 9.781,0 16.7099,-5.10112 21.9315,-16.14611 2.9214,-6.17969 5.7125,-16.27736 5.7125,-20.6668 0,-4.01474 0.9087,-6.18744 2.5879,-6.18744 3.9063,0 1.5917,15.12815 -4.0766,26.64474 -8.4942,17.25822 -22.6699,25.86326 -36.7768,22.32462 z m 17.7259,-79.96971 c -0.046,-16.90399 -1.6625,-24.04823 -6.5452,-28.93093 -7.5078,-7.50781 -16.0879,-0.5332 -19.427,15.7919 -2.0725,10.13226 -2.8296,22.22214 -1.5919,25.41815 l 1.0763,2.77912 13.2637,-0.27912 13.2637,-0.27912 -0.04,-14.5 z m 125.6043,79.57797 c -1.0047,-1.21061 -0.2736,-1.89361 4.3869,-4.09839 9.8361,-4.65323 9.5521,-3.0528 9.5264,-53.68974 -0.02,-40.32205 -0.1518,-43.57586 -1.9162,-47.46188 -2.0071,-4.42064 -4.7788,-6.75397 -9.3618,-7.8812 -1.8558,-0.45645 -2.6945,-1.23803 -2.487,-2.31772 0.2746,-1.42912 2.7501,-1.66236 20.1716,-1.90059 21.5111,-0.29414 22.6154,-0.0552 22.6154,4.89399 0,1.58266 0.2159,2.87756 0.4797,2.87756 0.2639,0 2.8514,-1.80741 5.75,-4.01646 5.2749,-4.01996 12.816,-6.98354 17.7703,-6.98354 5.0158,0 12.6042,2.96935 16.8282,6.58492 5.9943,5.13096 8.499,10.45608 7.9622,16.92857 -1.4436,17.40783 -21.5776,22.16011 -31.6174,7.46271 -2.1661,-3.17105 -2.32,-4.15437 -1.7524,-11.20179 0.6158,-7.64763 0.5966,-7.73199 -1.9065,-8.36023 -3.773,-0.94697 -7.3175,1.93449 -10.3582,8.42053 l -2.6559,5.66529 -0.302,40.79788 c -0.296,39.99171 -0.2604,40.86514 1.8019,44.2019 1.3655,2.20942 4.038,4.31907 7.6155,6.01148 3.0373,1.4369 5.3337,3.14196 5.1152,3.7981 -0.2912,0.87455 -7.8383,1.26108 -28.4283,1.45598 -23.5224,0.22266 -28.2259,0.0316 -29.2376,-1.18737 z m 113.6528,0.33045 c -5.1772,-1.21908 -8.6161,-3.14351 -12.5533,-7.02495 -11.3157,-11.15539 -13.4724,-34.6292 -4.1565,-45.23947 3.5088,-3.99628 11.9507,-8.57655 21.4923,-11.66095 15.1073,-4.88355 22.7486,-10.44099 25.6395,-18.64728 1.7018,-4.83062 1.6904,-19.61873 -0.019,-24.61117 -3.7586,-10.97844 -14.168,-14.7629 -22.1446,-8.05099 -3.7926,3.19127 -3.7392,4.46711 0.3796,9.07351 4.7789,5.34453 5.6443,7.42017 5.6443,13.5371 0,10.12084 -8.2252,17.64208 -17.8505,16.32278 -5.5695,-0.76337 -10.4643,-3.76232 -13.099,-8.02544 -2.5188,-4.07538 -2.7609,-12.94039 -0.5016,-18.36368 8.5514,-20.52728 50.4255,-27.31274 66.8788,-10.83735 8.2375,8.24858 8.008,6.80103 8.5802,54.11947 0.5496,45.46377 0.6519,46.288 6.0192,48.5112 3.4464,1.42756 8.4756,-0.82555 10.1768,-4.5593 0.6293,-1.38102 1.9679,-2.4519 3.0651,-2.4519 1.6211,0 1.8352,0.46134 1.2763,2.75 -2.2529,9.22492 -12.0956,15.66188 -23.9867,15.68687 -8.837,0.0186 -14.3144,-2.61324 -18.8599,-9.06204 l -3.1922,-4.52886 -3.0032,3.42544 c -4.3565,4.96893 -8.486,7.48905 -15.0907,9.20935 -6.4365,1.67649 -9.0665,1.75303 -14.6951,0.42766 z m 26.0548,-14.11882 c 4.8138,-4.43448 5.2277,-6.98822 5.2277,-32.25748 l 0,-23.53212 -2.6286,0 c -1.9634,0 -4.7022,2.08752 -10.8236,8.25 -10.4478,10.51774 -12.989,15.56176 -12.9729,25.75 0.025,15.73413 6.3507,25.88231 15.3185,24.57419 1.8664,-0.27224 4.5119,-1.52531 5.8789,-2.78459 z m 138.89435,14.54373 c -1.6345,-1.63442 -0.3655,-3.33734 3.2028,-4.29818 5.4152,-1.45816 8.8867,-4.49622 10.0905,-8.83064 0.6599,-2.37604 1.0151,-27.73136 0.9905,-70.70451 -0.04,-70.533504 -0.1096,-71.703401 -4.5393,-76.598095 -0.9784,-1.081135 -3.7212,-2.454769 -6.0951,-3.052519 -2.4804,-0.624596 -4.3161,-1.674276 -4.3161,-2.468103 0,-1.131196 3.8022,-1.381285 21,-1.381285 l 21,0 0,29.33333 c 0,16.133342 0.2919,29.625252 0.6487,29.982032 0.3568,0.35678 2.3615,-0.89873 4.4549,-2.79002 6.9857,-6.31112 11.3896,-7.99992 20.8964,-8.01334 7.3194,-0.0103 9.2998,0.38075 14.2583,2.81561 14.4795,7.11017 17.8468,20.87594 15.2886,62.50199 -2.009,32.69034 -0.3727,43.20667 7.4409,47.82227 3.5654,2.10612 3.952,5.07962 0.7622,5.86162 -1.2375,0.30338 -12.1441,0.42445 -24.2369,0.26905 -20.0626,-0.25781 -22.0165,-0.43657 -22.3252,-2.04249 -0.2447,-1.27253 0.4939,-1.92641 2.6668,-2.36099 3.943,-0.78859 7.0979,-4.26171 8.205,-9.03241 1.3042,-5.62035 1.1781,-76.13925 -0.1472,-82.31899 -1.3708,-6.39167 -5.9875,-11.57589 -11.1754,-12.54915 -4.9735,-0.93303 -9.3358,1.70255 -13.2244,7.98983 l -3.0127,4.87109 -0.2714,40.58028 c -0.3128,46.77527 -0.4723,45.79243 8.0981,49.88536 3.998,1.90927 4.6209,2.55319 3.6276,3.75 -0.9887,1.19135 -5.7115,1.44493 -26.9101,1.44493 -14.141,0 -26.0109,-0.3 -26.3775,-0.66667 z"
     id="path2987"
     inkscape:connector-curvature="0" />
</svg>
